<svg width="22" height="20" viewBox="0 0 22 20" fill="none" xmlns="http://www.w3.org/2000/svg">
<path d="M11 0C4.93488 0 0 4.46489 0 9.95238C0 11.8657 0.592625 13.7032 1.716 15.2869L0.0495 19.0513C-0.05225 19.2827 0.00687499 19.5465 0.202125 19.7231C0.33275 19.8413 0.50875 19.9048 0.6875 19.9048C0.774125 19.9048 0.859375 19.8898 0.94325 19.86L5.104 18.3522C6.85437 19.3686 8.88525 19.9048 11 19.9048C17.0651 19.9048 22 15.4399 22 9.95238C22 4.46489 17.0651 0 11 0ZM11 18.6607C9.03925 18.6607 7.16237 18.1357 5.57425 17.1417C5.45875 17.0683 5.32125 17.031 5.18375 17.031C5.09713 17.031 5.0105 17.0459 4.928 17.0758L1.92225 18.1656L3.12675 15.4461C3.212 15.252 3.1845 15.0318 3.05387 14.8614C1.95525 13.4245 1.375 11.7264 1.375 9.95238C1.375 5.15036 5.6925 1.24405 11 1.24405C16.3075 1.24405 20.625 5.15036 20.625 9.95238C20.625 14.7544 16.3075 18.6607 11 18.6607Z" fill="#808FA6"/>
</svg>
